<svg xmlns="http://www.w3.org/2000/svg" width="23" height="22"><title>line-menu</title><desc>Created with Sketch.</desc><g fill="none"><g fill="#283593" fill-rule="nonzero"><path d="M1.9 3.85c-.5 0-.98-.18-1.34-.52C.2 2.98 0 2.5 0 2-.03 1.48.16.97.52.6.88.2 1.38 0 1.9 0h19.15C22.13.03 23 .9 23 2c0 .5-.2 1-.57 1.36-.37.36-.87.55-1.38.54L1.9 3.85zM21.05 8.57c1.07.03 1.92.88 1.95 1.95 0 .5-.2 1-.57 1.36-.37.36-.87.55-1.38.54H1.9c-.5 0-1-.18-1.36-.54-.36-.36-.55-.85-.54-1.36 0-.5.18-1 .54-1.38.36-.36.85-.57 1.36-.57h19.15zM21.05 17.2c.5 0 1 .18 1.37.54.37.35.58.84.58 1.35 0 1.08-.87 1.96-1.95 2H1.9c-.52 0-1.02-.22-1.38-.6-.36-.38-.55-.9-.52-1.4 0-.52.2-1 .54-1.36.36-.36.85-.55 1.36-.54h19.15z"/></g></g></svg>