<svg xmlns="http://www.w3.org/2000/svg" width="20" height="20"><title>phone</title><desc>Created with Sketch.</desc><g fill="none"><g fill="#fff" fill-rule="nonzero"><path d="M4 8.67c1.64 3.13 4.2 5.7 7.33 7.33l2.45-2.44c.26-.34.73-.43 1.1-.23 1.3.46 2.65.7 4 .67.3-.04.62.07.83.3.23.2.34.5.3.8v3.8c.04.3-.07.6-.3.8-.2.23-.5.34-.8.3-5.02 0-9.83-1.98-13.37-5.53C1.98 10.93 0 6.12 0 1.1-.04.8.07.5.3.3c.2-.23.5-.34.8-.3H5c.3-.04.6.07.82.3.22.2.33.5.3.8 0 1.37.22 2.72.66 4 .1.4 0 .8-.22 1.12L4 8.67z"/></g></g></svg>