<svg xmlns="http://www.w3.org/2000/svg" width="20" height="24"><title>upload</title><desc>Created with Sketch.</desc><g fill="none"><g fill="#EF6C00" fill-rule="nonzero"><path d="M18.12 14.2c-.06.02-.14.02-.2 0-.06 0-.1 0-.14.1-.03.12-.07.13-.1.13 0 0 0 .06 0 .18v4.96c0 .66-.26 1.3-.74 1.74-.47.46-1.1.7-1.76.7H4.4c-.64 0-1.27-.25-1.72-.72-.44-.45-.7-1.06-.68-1.7v-4.9c0-.1-.03-.2-.1-.3-.08-.08-.2-.14-.3-.15-.12-.03-.24-.04-.36-.05H.5c-.14 0-.26.05-.35.15-.1.1-.15.2-.15.34v4.9c-.02 1.17.45 2.3 1.3 3.12.8.84 1.93 1.3 3.1 1.3H15.2c1.17 0 2.3-.46 3.12-1.3.83-.82 1.3-1.94 1.3-3.1v-4.9c0-.12-.04-.23-.1-.32-.1-.1-.2-.14-.3-.15-.13-.03-.25-.04-.37-.05h-.7v.02zM9.1.3L.8 8.6c-.37.4-.37 1 0 1.38.18.2.43.3.7.3h4.4v6.85c0 .55.45 1 1 1h5.87c.55 0 1-.45 1-1V10.3h4.4c.27 0 .52-.12.7-.3.36-.4.36-1 0-1.38L10.48.3c-.38-.37-1-.37-1.37 0z"/></g></g></svg>