<svg xmlns="http://www.w3.org/2000/svg" width="26" height="26"><title>instagram</title><desc>Created with Sketch.</desc><g fill="none"><g fill="#ef6c00" fill-rule="nonzero"><path d="M15.3 11.32c-.53-.75-1.4-1.2-2.3-1.2-.93 0-1.8.45-2.32 1.2-.35.5-.54 1.08-.54 1.68 0 1.57 1.28 2.85 2.85 2.85 1.56 0 2.84-1.28 2.84-2.85 0-.6-.2-1.2-.54-1.68zM17.1 11.34c.22.52.33 1.1.32 1.66 0 2.45-1.98 4.43-4.43 4.43-2.46 0-4.44-1.98-4.44-4.43 0-.57.1-1.13.33-1.65H6.4V18c.04.87.73 1.56 1.6 1.6h10c.86-.05 1.55-.74 1.6-1.6v-6.66h-2.5zM18.84 6.76h-2.4V9.5h2.74V6.75zM19.46 0H6.52C2.92 0 .02 2.92 0 6.52v13C.03 23.1 2.94 26 6.52 26h13c3.6-.03 6.5-2.95 6.48-6.54V6.52c-.02-3.6-2.94-6.5-6.54-6.52zM21 11.32V18c0 1.66-1.34 3-3 3H8c-1.66 0-3-1.34-3-3V8c0-1.66 1.34-3 3-3h10c1.66 0 3 1.34 3 3v3.32z"/></g></g></svg>