<svg xmlns="http://www.w3.org/2000/svg" width="343" height="407"><title>man-laptop-v2</title><desc>Created with Sketch.</desc><defs><linearGradient id="a" x1="49.998%" x2="49.998%" y1="100.002%" y2=".001%"><stop stop-color="#76AADB" offset="0%"/><stop stop-color="#4A72B2" offset="100%"/></linearGradient><linearGradient id="b" x1="0%" y1="49.995%" y2="49.995%"><stop stop-color="#2ACAFF" offset="0%"/><stop stop-color="#2ADFC3" offset="100%"/></linearGradient><linearGradient id="c" x1="-.031%" y1="4732.399%" y2="4732.399%"><stop stop-color="#2ACAFF" offset="0%"/><stop stop-color="#2ADFC3" offset="100%"/></linearGradient><linearGradient id="d" x1="0%" y1="50%" y2="50%"><stop stop-color="#fff" offset="0%"/><stop stop-color="#F7F7F8" offset="100%"/></linearGradient><linearGradient id="e" x1="0%" x2="100.021%" y1="4057.305%" y2="4057.305%"><stop stop-color="#fff" offset="0%"/><stop stop-color="#F7F7F8" offset="100%"/></linearGradient><linearGradient id="f" x1="-.002%" x2="99.999%" y1="454.483%" y2="454.483%"><stop stop-color="#2ACAFF" offset="0%"/><stop stop-color="#2ADFC3" offset="100%"/></linearGradient><linearGradient id="g" x1="-.01%" x2="100.006%" y1="2570.346%" y2="2570.346%"><stop stop-color="#2ACAFF" offset="0%"/><stop stop-color="#2ADFC3" offset="100%"/></linearGradient><linearGradient id="h" x1=".408%" x2="100.33%" y1="5979.028%" y2="5979.028%"><stop stop-color="#2ACAFF" offset="0%"/><stop stop-color="#2ADFC3" offset="100%"/></linearGradient></defs><g fill="none"><g><path fill="url(#a)" fill-rule="nonzero" d="M59.32 352.86s-80-55.35 0-130.9c80-75.55 172.92-119.56 231-122.1 58.08-2.54 67.1 136.78 32.26 228.4-34.85 91.64-153.58 107.1-263.26 24.6z"/><path fill="#FFCB9C" fill-rule="nonzero" d="M237.3 261.8s37.5 45.7-9 75.23l-7.27-15s16-16.72 4.16-37.12l12.1-23.1z"/><path fill="#FFCB9C" fill-rule="nonzero" d="M71.14 261.8s-37.5 45.7 9 75.23l7.26-15s-16-16.72-4.16-37.12l-12.1-23.1z"/><path fill="url(#b)" fill-rule="nonzero" d="M245.93 271.47c-19.1-38-54.76-43.68-54.76-43.68v.2l-11.37-2.75c-24-5.1-48.9-4.2-72.46 2.6 0 0-34.88 9.3-49.9 49.06l21.86 11.96c-1.8 18.9-1.36 42.53 3.4 71.83 11.22-3.57 23.93 1.14 35.6 1.88 13.86.88 26.28-.57 39.93 1.45 24.8 3.65 50.13 2 75.13 4 .34-22.34-.67-53.76-6.84-83.16l19.4-13.4z"/><g transform="translate(116 126)"><path fill="#FFCB9C" fill-rule="nonzero" d="M80.43 51.84c-.55 12.94-3.78 24.65-23.2 33.38 0 0-10 10-7.06 23.77 2.94 13.76-34.65 12.7-29-6.32 5.65-19.02-3.7-40.86-10.52-53.3-6.82-12.42-4-38.33 11.7-46.8C28.5-.7 43.84.8 53.84 5.75 70.65 14 81.22 33.1 80.43 51.84z"/><path fill="#FFCB9C" fill-rule="nonzero" d="M14.48 38.26c-2.9-2.2-6.63-3-10.18-2.2-5.62 1.46-6.6 22.05 6.57 25.64 13.17 3.6 8.44-9.33 8.44-9.33l-4.82-14.1z"/><path fill="#191919" fill-rule="nonzero" d="M81.1 49.63c-.5.08-1.04.1-1.57.1-1.04.03-2.07-.13-3.05-.48-4.4 2.2-11.9 4.62-19.33.76-11.5-6-21.7-6.86-27.06-4.24-9.26 4.5-19.84 2.08-23-12.18 0 0-1.3 11.34 5.7 17.33 7.02 6 7.33 15.33 6.3 23.1-1 7.77-6.56 16.4.5 26.18 7.06 9.77 18.6 0 27.25 2.33 8.66 2.34 27.74 4.74 31.73-11 4-15.72-1.17-21.64 0-28.18 1.02-5.58 3.22-8.9 2.53-13.7z"/><g fill-rule="nonzero"><g fill="#CE3E3E"><path d="M54 57.33C52.4 56 50.5 55 48.5 54.45c-2.7-.5-5.5 0-6.63 3.3-1.13 3.32 1.73 6.4 5.42 9.2 2.16 1.57 10 4.45 14.75 3.14 4.76-1.32 7.32-2.62 8.82-5.4 1.16-2.8.08-6-2.52-7.5-1.93-.95-4.2-.9-6.08.15-2.52 1.63-5.76 1.62-8.27-.02z"/></g><g fill="#FF7D7D"><path d="M43.6 63.65c2.8-.88 5.8-.83 8.57.14 3.55 1 6.58 3.35 8.46 6.53-3.86.27-7.73-.46-11.23-2.13-2.28-1-4.27-2.58-5.8-4.55z"/></g></g><path fill="#191919" fill-rule="nonzero" d="M46.86 31.63c0 2.25-.94 4.08-2.1 4.08-1.18 0-2.12-1.82-2.12-4.07s1-4.07 2.1-4.07c1.12 0 2.12 1.8 2.12 4.07z"/><path fill="#191919" fill-rule="nonzero" d="M69.88 34.26c0 2.25-.95 4.08-2.1 4.08-1.17 0-2.12-1.83-2.12-4.08s.94-4.07 2.1-4.07c1.18 0 2.12 1.8 2.12 4.06z"/><circle cx="71.36" cy="31.66" r="12.98" stroke="#1D1D1B" stroke-width="2"/><path fill="#FF6252" fill-rule="nonzero" d="M58.76 20.65l6.87 27.25-14.13-1.58z"/><path stroke="#1D1D1B" stroke-width="2" d="M55.7 29.55c0 7.18-5.82 13-13 13s-13-5.82-13-13 5.82-13 13-13 13 5.82 13 13z"/><path stroke="#1D1D1B" stroke-width="2" d="M61.64 23.04h-7.78"/><path stroke="#1D1D1B" stroke-width="2" d="M30.15 26.03l-24.2 7.55"/><path fill="#191919" fill-rule="nonzero" d="M19.05 53.4c0 2.56-1.53 4.87-3.9 5.85-2.35.98-5.06.44-6.87-1.36-1.8-1.82-2.35-4.53-1.37-6.9 1-2.35 3.3-3.9 5.84-3.9 3.48 0 6.3 2.83 6.3 6.3z"/><path fill="#191919" fill-rule="nonzero" d="M21.2 60.85c0 3.02-2.46 5.47-5.48 5.47-3.02 0-5.47-2.45-5.47-5.47 0-3.02 2.45-5.47 5.47-5.47 1.45 0 2.84.57 3.87 1.6 1.02 1.03 1.6 2.42 1.6 3.87z"/><path fill="#191919" fill-rule="nonzero" d="M23.1 69.46c0 4.07-3.3 7.37-7.38 7.37-4.07 0-7.37-3.3-7.37-7.37s3.3-7.37 7.37-7.37 7.36 3.3 7.37 7.36z"/><path fill="#191919" fill-rule="nonzero" d="M23.1 81.4c0 4.07-3.28 7.38-7.35 7.4-4.07.02-7.38-3.27-7.4-7.34-.02-4.07 3.27-7.38 7.34-7.4 4.06 0 7.36 3.3 7.36 7.37l.03-.03z"/><path fill="#191919" fill-rule="nonzero" d="M26.42 94.54c0 3-1.78 5.68-4.54 6.83-2.76 1.15-5.93.53-8.05-1.58-2.1-2.12-2.75-5.3-1.6-8.05 1.12-2.76 3.8-4.57 6.8-4.57 4.07 0 7.37 3.3 7.4 7.36z"/><path fill="#191919" fill-rule="nonzero" d="M34.88 102.6c0 4.1-3.3 7.4-7.38 7.4s-7.38-3.3-7.38-7.4c0-4.07 3.3-7.37 7.38-7.37 1.96 0 3.84.77 5.22 2.16 1.4 1.37 2.16 3.25 2.16 5.2z"/><path fill="#191919" fill-rule="nonzero" d="M48.94 101.87c.02 4.07-3.26 7.4-7.33 7.4-4.06.03-7.37-3.24-7.4-7.3-.03-4.08 3.25-7.4 7.32-7.43 1.96-.02 3.84.75 5.23 2.12 1.4 1.38 2.18 3.25 2.2 5.2z"/><path fill="#191919" fill-rule="nonzero" d="M62.82 104.54c0 4.07-3.3 7.37-7.37 7.37s-7.37-3.3-7.37-7.36c0-4.07 3.3-7.37 7.37-7.37s7.36 3.3 7.37 7.37z"/><path fill="#191919" fill-rule="nonzero" d="M76.75 100.2c.05 3-1.7 5.72-4.45 6.9-2.74 1.2-5.93.6-8.07-1.47-2.14-2.1-2.82-5.25-1.72-8.03 1.12-2.77 3.78-4.6 6.77-4.65h.1c4.03 0 7.3 3.23 7.38 7.26z"/><circle cx="76.15" cy="89.82" r="7.37" fill="#191919" fill-rule="nonzero"/><path fill="#191919" fill-rule="nonzero" d="M87.84 76.84c0 4.08-3.3 7.38-7.38 7.38s-7.38-3.3-7.38-7.38 3.3-7.38 7.38-7.38c4.06 0 7.35 3.3 7.36 7.36l.02.02z"/><path fill="#191919" fill-rule="nonzero" d="M86.84 64.23c0 4.07-3.3 7.37-7.37 7.37s-7.37-3.3-7.37-7.37 3.3-7.37 7.37-7.37 7.36 3.3 7.37 7.37z"/><path fill="#191919" fill-rule="nonzero" d="M87.2 55.32c.22 2.98-1.4 5.8-4.06 7.13-2.67 1.34-5.9.93-8.15-1.03-2.26-1.96-3.12-5.08-2.17-7.92.95-2.83 3.5-4.82 6.5-5.03h.52c3.92-.14 7.2 2.93 7.36 6.85z"/></g><g fill-rule="nonzero" transform="translate(75 242)"><rect width="161.3" height="7.51" x="2.23" y="107.36" fill="#AFAFAF" rx="3.5"/><rect width="165.6" height="111.27" x=".11" y=".29" fill="#D8D8D8" rx="11.36"/><path fill="#fff" d="M93.55 55.93c0 4.35-2.6 8.28-6.6 9.95-4.03 1.68-8.66.77-11.74-2.3-3.07-3.07-4-7.7-2.34-11.72 1.66-4.02 5.58-6.65 9.93-6.65 2.83 0 5.57 1.12 7.6 3.13 2 2 3.14 4.73 3.15 7.57v.03z"/><path fill="#F5F5F5" d="M3.23 3.37l160.37 104c1.1-1.58 1.82-3.4 2.07-5.3v-91.7c-.2-2.3-1.05-4.48-2.48-6.3-1.7-2-4.07-3.3-6.67-3.65-.8 0-1.58-.1-2.38-.1H10.63C8.73.4 6.85.93 5.2 1.9c-.68.46-1.34.95-1.97 1.47z" opacity=".57"/></g><path fill="#191919" fill-rule="nonzero" d="M226.2 379.73c-2 9.04-4.92 17.84-8.74 26.27 0 0-37.25 5.22-88.46-13.9 0 0-23.94-10.38-27.2-12.37h124.4z"/><path fill="url(#c)" fill-rule="nonzero" d="M230.93 379.73l-.68 5.25c-.1.8-.5 1.52-1.12 2-.63.5-1.43.73-2.22.63h-.13c-8.87-1.56-35.46-5.27-61.2-.76-31.52 5.5-47.8.8-47.8.8s-11.44-5.43-16-7.9h129.16z"/><g fill-rule="nonzero"><g><path fill="url(#d)" d="M.47.86h230.3c0 6.32-5.13 11.44-11.45 11.44H13.74C7.1 12.3 1.47 7.43.54.86H.47z" transform="translate(54 356)"/><path fill="url(#e)" d="M10.7 12.3h194c0 6.3-5.12 11.43-11.43 11.43H23.93c-6.63 0-12.26-4.87-13.22-11.43z" transform="translate(54 356)"/></g></g><g stroke="#141414" transform="translate(230 121)"><circle cx="43.87" cy="43.51" r="42.91" fill="#fff" fill-rule="nonzero"/><path fill="#fff" fill-rule="nonzero" d="M43.84 16.15v27.38h21.42"/><path d="M43.84 5.37v3.67"/><path d="M56.8 7.64l-1.24 3.45"/><path d="M68.24 14.2L65.88 17"/><path d="M76.75 24.23l-3.17 1.86"/><path d="M81.35 36.56l-3.63.68"/><path d="M81.47 49.73l-3.64-.6"/><path d="M77.1 62.16l-3.2-1.8"/><path d="M68.78 72.35l-2.4-2.77"/><path d="M57.48 79.1l-1.3-3.42"/><path d="M44.56 81.63l-.07-3.67"/><path d="M31.55 79.6l1.18-3.48"/><path d="M20 73.27l2.3-2.87"/><path d="M11.3 63.4l3.15-1.93"/><path d="M6.47 51.13l3.6-.72"/><path d="M6.1 37.98l3.65.54"/><path d="M10.24 25.47l3.24 1.74"/><path d="M18.37 15.12l2.46 2.74"/><path d="M29.54 8.15l1.38 3.4"/></g><g fill-rule="nonzero"><path fill="url(#f)" d="M68.78 14.63c-5.02.65-10-1.5-12.95-5.63-2.63-3.6-8-8.16-16.35-3.58-12.6 6.94-14.64 14.2-27.24 16.7-12.6 2.48-15.6 12.18-8.4 19.5 7.17 7.34 8.4 15.44 4.7 21.95-3.68 6.5-5.7 23.17 7.2 24.43 12.9 1.26 20.5-1.2 24.15 9 3.65 10.2 18.2 22.83 35.92 12.2 17.72-10.65 35.4-.4 42.13-1.68 3.6-.63 6.83-2.67 8.93-5.67 2.1-3 2.94-6.72 2.3-10.33v-.06c-.03-.3-.08-.58-.17-.86-1.8-9.2 1.22-18.4 8.06-22.77 0 0 8.3-2.36 10.3-12.84 2.02-10.5.24-21.9-15.36-27.2-15.6-5.27-11.3-17.32-25-24.28-13.7-6.96-23.67-2.2-27.53 2.33-3.05 3.6-5.47 8-10.7 8.78z"/><path fill="url(#g)" d="M92.14 117.93c-1.18 3.65-4.45 6.23-8.27 6.52-6.68.65-6.05 9.88 2.22 8.6 8.26-1.28 10.5 1 13.2 1.28 2.7.28 6.84-.5 7.17-5.42.33-4.92-3.83-4.6-6.7-4.72-2.85-.1-.15-5.4-1.9-7-1.56-1.4-3.96-1.27-5.36.28-.12.15-.25.3-.36.47z"/><path fill="url(#h)" d="M106.82 149.42c-.84-.58-1.88-.8-2.88-.6-1 .18-1.88.76-2.46 1.6-.48.7-.7 1.54-.66 2.38v.4c.15 4.72 4.12 2.86 6.1 3.14 1.96.28 3-1.95 3-3.84 0-1.9-1.6-1.58-2.78-2.85l-.32-.23z"/></g><g fill="#fff" fill-rule="nonzero"><path d="M76.5 80.86l4.23-.17-.28-6.78-4.4.2c-.48-1.54-1.2-3-2.1-4.3l2.92-3L72 62l-3.06 3.15c-1.4-.78-2.92-1.34-4.5-1.67v-4.1h-6.77v4.42c-1.9.5-3.68 1.35-5.25 2.5l-3.15-3-4.6 5 3.4 3.16c-.98 1.9-1.57 3.96-1.73 6.08l-4.2.46.86 6.76 4.38-.57c.6 1.48 1.43 2.87 2.46 4.1l-2.6 3.3 5.27 4.23 2.6-3.43c1.47.68 3.03 1.1 4.63 1.27l.36 4.2 6.73-.58-.3-4.3c1.5-.53 2.92-1.3 4.18-2.27l3.16 2.8 4.48-5.1L75 85.46c.75-1.44 1.26-3 1.5-4.6zm-15.2 3.3c-3.47 0-6.3-2.8-6.3-6.3 0-3.47 2.83-6.3 6.3-6.3 3.5 0 6.3 2.83 6.3 6.3 0 3.5-2.8 6.3-6.3 6.3z"/><path d="M115.15 62.42l4.24-.17-.3-6.78-4.4.2c-.47-1.53-1.18-2.98-2.1-4.3l2.93-3.05-4.9-4.73-3 3.15c-1.4-.8-2.92-1.35-4.5-1.67V41h-6.8v4.43c-1.9.5-3.68 1.34-5.25 2.5l-3.15-3-4.6 4.93 3.4 3.14c-.97 1.9-1.54 3.96-1.67 6.08l-4.2.55.88 6.7 4.38-.56c.6 1.5 1.42 2.88 2.44 4.1l-2.65 3.3 5.3 4.24 2.64-3.4c1.45.7 3 1.12 4.6 1.28l.36 4.2 6.74-.67-.4-4.4c1.52-.5 2.94-1.28 4.2-2.25L112.5 75l4.5-5.1-3.35-2.9c.75-1.43 1.26-2.98 1.5-4.58zM100 65.72c-2.55 0-4.85-1.53-5.83-3.9-.98-2.35-.44-5.06 1.37-6.87 1.8-1.8 4.52-2.34 6.88-1.36 2.36.97 3.9 3.28 3.9 5.83 0 1.67-.68 3.28-1.86 4.46-1.18 1.17-2.8 1.83-4.46 1.83z"/><path d="M80.23 42.54l4.2-.58-.94-6.75-4.38.63c-.62-1.48-1.46-2.85-2.5-4.07l2.6-3.32-5.3-4.2-2.73 3.5c-1.5-.65-3.05-1.07-4.65-1.24l-.4-4.2-6.73.7.44 4.4c-1.84.67-3.54 1.7-5 3l-3.5-2.68-4.1 5.4L51 35.9c-.82 2-1.2 4.13-1.12 6.3l-4.16.87 1.58 6.57 4.3-1c.73 1.43 1.7 2.73 2.85 3.85l-2.32 3.54 5.63 3.8 2.42-3.7c1.52.53 3.12.8 4.73.8l.78 4.17 6.63-1.27-.8-4.35c1.48-.65 2.83-1.55 4-2.65l3.46 2.45 3.94-5.5-3.6-2.55c.58-1.5.9-3.1.93-4.7zm-14.8 4.72c-2.52.26-4.97-1.03-6.18-3.27-1.2-2.25-.95-5 .66-6.98 1.6-1.98 4.25-2.8 6.7-2.06 2.44.73 4.2 2.85 4.46 5.4.17 1.65-.32 3.3-1.38 4.6-1.05 1.3-2.58 2.13-4.24 2.3z"/></g></g></g></svg>