<svg xmlns="http://www.w3.org/2000/svg" width="429" height="362"><title>man-laptop-v1</title><desc>Created with Sketch.</desc><defs><linearGradient id="a" x1="50%" x2="50%" y1="99.998%" y2=".002%"><stop stop-color="#76AADB" offset="0%"/><stop stop-color="#4A72B2" offset="100%"/></linearGradient><linearGradient id="b" x1="0%" y1="49.988%" y2="49.988%"><stop stop-color="#2ACAFF" offset="0%"/><stop stop-color="#2ADFC3" offset="100%"/></linearGradient><linearGradient id="c" x1="0%" y1="-2838.695%" y2="-2838.695%"><stop stop-color="#2ACAFF" offset="0%"/><stop stop-color="#2ADFC3" offset="100%"/></linearGradient><linearGradient id="d" x1="0%" x2="99.988%" y1="50.04%" y2="50.04%"><stop stop-color="#fff" offset="0%"/><stop stop-color="#F7F7F8" offset="100%"/></linearGradient><linearGradient id="e" x1="0%" y1="-2231.981%" y2="-2231.981%"><stop stop-color="#fff" offset="0%"/><stop stop-color="#F7F7F8" offset="100%"/></linearGradient><linearGradient id="f" x1="-.001%" x2="99.986%" y1="241.327%" y2="241.327%"><stop stop-color="#2ACAFF" offset="0%"/><stop stop-color="#2ADFC3" offset="100%"/></linearGradient><linearGradient id="g" x1="-.009%" x2="99.996%" y1="570.503%" y2="570.503%"><stop stop-color="#2ACAFF" offset="0%"/><stop stop-color="#2ADFC3" offset="100%"/></linearGradient><linearGradient id="h" x1=".354%" x2="100.501%" y1="775.604%" y2="775.604%"><stop stop-color="#2ACAFF" offset="0%"/><stop stop-color="#2ADFC3" offset="100%"/></linearGradient></defs><g fill="none"><g><path fill="url(#a)" fill-rule="nonzero" d="M117.16 302.28s-87.93-60.85 0-143.9C205.1 75.33 307.24 27 371.06 24.18c63.84-2.8 73.78 150.37 35.47 251.1-38.3 100.73-168.8 117.72-289.37 27z"/><path fill="#FFCB9C" fill-rule="nonzero" d="M312.8 202.22s41.23 50.22-9.9 82.7l-8-16.46s17.65-18.38 4.57-40.8l13.33-25.44z"/><path fill="#FFCB9C" fill-rule="nonzero" d="M130.15 202.22s-41.23 50.22 9.9 82.7l8-16.46s-17.65-18.38-4.57-40.8l-13.33-25.44z"/><path fill="url(#b)" fill-rule="nonzero" d="M322.3 212.84c-21-41.8-60.2-48-60.2-48v.26l-12.5-3.1c-26.38-5.62-53.75-4.63-79.66 2.88 0 0-38.34 10.23-54.86 54l24 13.1c-2 20.78-1.5 46.76 3.74 79 12.33-3.92 26.3 1.26 39.13 2.07 15.24 1 28.9-.62 43.9 1.6 27.27 4 55.1 2.23 82.58 4.36.38-24.54-.73-59.1-7.5-91.4l21.36-14.76z"/><g transform="translate(179 53)"><path fill="#FFCB9C" fill-rule="nonzero" d="M88.88 56.9c-.6 14.24-4.15 27.1-25.5 36.7 0 0-11 11-7.76 26.13 3.24 15.13-38.1 14-31.93-6.92 6.16-20.9-4.08-44.9-11.58-58.57C4.62 40.57 7.74 12 25 2.78c6.77-3.64 23.63-2 34.63 3.46 18.5 9.08 30.12 30.05 29.25 50.67z"/><path fill="#FFCB9C" fill-rule="nonzero" d="M16.38 42c-3.2-2.4-7.3-3.3-11.2-2.42-6.17 1.6-7.24 24.24 7.23 28.2C26.9 71.7 21.7 57.5 21.7 57.5L16.38 42z"/><path fill="#191919" fill-rule="nonzero" d="M89.63 54.5c-.58.07-1.16.1-1.74.1-1.15.02-2.28-.16-3.36-.53-4.84 2.42-13.08 5.07-21.25.83-12.65-6.58-23.86-7.55-29.76-4.67-10.17 5-21.8 2.28-25.25-13.4 0 0-1.43 12.48 6.28 19 7.7 6.54 8 16.86 6.92 25.4-1.08 8.52-7.22 18 .54 28.77 7.76 10.78 20.43 0 30 2.57s30.5 5.2 34.87-12.13c4.4-17.32-1.27-23.8 0-31 1.1-6.04 3.5-9.7 2.73-14.95z"/><g fill-rule="nonzero"><g fill="#CE3E3E"><path d="M59.8 63c-1.78-1.48-3.85-2.56-6.07-3.17-2.94-.55-6 0-7.27 3.64-1.27 3.64 1.9 7 5.95 10.1 2.4 1.73 11 4.9 16.24 3.46 5.23-1.44 8.05-2.87 9.7-5.94 1.65-3.08-.37-6.94-2.77-8.25-2.12-1.04-4.62-.98-6.7.17-2.76 1.78-6.32 1.77-9.08-.02z"/></g><g fill="#FF7D7D"><path d="M48.4 69.9c3.07-1 6.38-.93 9.42.15 3.9 1.12 7.23 3.7 9.3 7.2-4.25.28-8.5-.53-12.35-2.35-2.5-1.12-4.7-2.84-6.37-5z"/></g></g><path fill="#191919" fill-rule="nonzero" d="M52 34.7c0 2.47-1 4.48-2.32 4.48-1.32 0-2.32-2-2.32-4.5 0-2.48 1-4.45 2.32-4.45 1.32 0 2.32 2 2.32 4.46z"/><path fill="#191919" fill-rule="nonzero" d="M77.28 37.6c0 2.46-1 4.47-2.32 4.47-1.32 0-2.32-2-2.32-4.48 0-2.5 1-4.48 2.32-4.48 1.32 0 2.32 2 2.32 4.47z"/><circle cx="78.906" cy="34.722" r="14.27" stroke="#1D1D1B" stroke-width="2" transform="rotate(-7 78.906 34.722)"/><path fill="#FF6252" fill-rule="nonzero" d="M65.06 22.62l7.54 29.94-15.53-1.7z"/><path stroke="#1D1D1B" stroke-width="2" d="M61.7 32.4c0 7.9-6.4 14.28-14.27 14.28-7.88 0-14.27-6.4-14.27-14.27 0-7.87 6.4-14.26 14.27-14.26 3.78 0 7.4 1.5 10.1 4.18 2.67 2.68 4.17 6.3 4.17 10.1z"/><path stroke="#1D1D1B" stroke-width="2" d="M68.22 25.26h-8.55"/><path stroke="#1D1D1B" stroke-width="2" d="M33.6 28.55L7 36.85"/><path fill="#191919" fill-rule="nonzero" d="M21.4 58.64c0 2.8-1.68 5.33-4.27 6.4-2.6 1.1-5.57.5-7.56-1.5C7.6 61.58 7 58.6 8.07 56c1.07-2.6 3.6-4.28 6.4-4.28 3.82 0 6.92 3.1 6.93 6.92z"/><path fill="#191919" fill-rule="nonzero" d="M23.76 66.8c0 3.32-2.7 6-6 6s-6-2.68-6-6c0-3.3 2.7-6 6-6s6 2.7 6 6z"/><path fill="#191919" fill-rule="nonzero" d="M25.85 76.3c0 3.27-1.98 6.23-5 7.48-3.04 1.26-6.53.56-8.85-1.76-2.32-2.32-3-5.8-1.75-8.84 1.26-3.03 4.22-5 7.5-5 2.15 0 4.2.85 5.73 2.38 1.52 1.52 2.37 3.58 2.37 5.73z"/><path fill="#191919" fill-rule="nonzero" d="M25.85 89.4c0 3.3-1.97 6.25-5 7.5-3.03 1.27-6.52.58-8.84-1.75-2.32-2.32-3-5.8-1.75-8.84 1.26-3.02 4.22-5 7.5-5 4.47.02 8.1 3.64 8.1 8.1z"/><path fill="#191919" fill-rule="nonzero" d="M29.5 103.82c0 4.47-3.6 8.1-8.1 8.1-4.46.02-8.1-3.6-8.1-8.07 0-4.48 3.6-8.1 8.08-8.12 2.14 0 4.2.84 5.72 2.36 1.52 1.5 2.38 3.56 2.38 5.7l.02.02z"/><path fill="#191919" fill-rule="nonzero" d="M38.8 112.72c0 4.47-3.63 8.1-8.1 8.1s-8.1-3.63-8.1-8.1 3.63-8.1 8.1-8.1c2.15 0 4.2.85 5.73 2.37 1.52 1.5 2.37 3.57 2.37 5.72z"/><path fill="#191919" fill-rule="nonzero" d="M54.27 111.9c-.02 4.45-3.63 8.04-8.08 8.03-4.45 0-8.05-3.6-8.05-8.06 0-4.44 3.6-8.05 8.04-8.05 4.44 0 8.05 3.58 8.07 8.02v.07z"/><path fill="#191919" fill-rule="nonzero" d="M69.52 114.85c0 3.28-1.97 6.24-5 7.5-3.03 1.26-6.52.57-8.84-1.76-2.33-2.33-3.02-5.82-1.76-8.85 1.26-3.03 4.22-5 7.5-5 4.47 0 8.1 3.63 8.1 8.1z"/><path fill="#191919" fill-rule="nonzero" d="M84.83 110.1c.04 3.27-1.9 6.25-4.9 7.55-3.02 1.3-6.52.65-8.87-1.64-2.35-2.28-3.1-5.76-1.87-8.8 1.2-3.06 4.14-5.07 7.42-5.1h.1c4.44 0 8.06 3.56 8.1 8z"/><circle cx="84.17" cy="98.66" r="8.1" fill="#191919" fill-rule="nonzero"/><path fill="#191919" fill-rule="nonzero" d="M97 84.4c0 3.27-1.97 6.23-5 7.5-3.03 1.25-6.52.56-8.84-1.77-2.33-2.32-3.02-5.8-1.76-8.84s4.22-5 7.5-5c4.46 0 8.08 3.6 8.1 8.07v.02z"/><path fill="#191919" fill-rule="nonzero" d="M95.93 70.54c0 3.28-1.98 6.24-5 7.5-3.04 1.25-6.53.55-8.85-1.77-2.32-2.32-3-5.8-1.75-8.84 1.26-3.03 4.22-5 7.5-5 4.48 0 8.1 3.63 8.1 8.1z"/><path fill="#191919" fill-rule="nonzero" d="M96.33 60.74c.3 4.47-3.07 8.35-7.55 8.65-4.47.3-8.35-3.08-8.65-7.55-.3-4.48 3.07-8.35 7.54-8.66h.57c4.32-.16 7.94 3.23 8.1 7.55z"/></g><g fill-rule="nonzero" transform="translate(134 180)"><rect width="177.32" height="8.26" x="2.85" y="118.47" fill="#AFAFAF" rx="3.84"/><rect width="182.05" height="122.32" x=".51" y=".77" fill="#D8D8D8" rx="12.48"/><path fill="#fff" d="M103.23 61.93c0 4.78-2.86 9.1-7.27 10.92-4.42 1.84-9.5.84-12.88-2.54-3.38-3.36-4.4-8.44-2.58-12.86 1.83-4.4 6.13-7.3 10.9-7.3 3.14 0 6.15 1.23 8.37 3.44 2.2 2.2 3.46 5.22 3.46 8.35z"/><path fill="#F5F5F5" d="M3.94 4.14l176.3 114.3c1.22-1.74 2-3.74 2.27-5.84V11.85c-.2-2.53-1.14-4.94-2.7-6.93-1.87-2.2-4.48-3.62-7.34-4-.87-.1-1.74-.12-2.6-.1H12.07c-2.12.04-4.18.63-6 1.72-.74.5-1.46 1.03-2.14 1.6z" opacity=".57"/></g><path fill="#191919" fill-rule="nonzero" d="M300.6 331.85c-2.2 9.93-5.42 19.6-9.6 28.87 0 0-40.95 5.75-97.3-15.28 0 0-26.32-11.4-29.9-13.6h136.8z"/><path fill="url(#c)" fill-rule="nonzero" d="M305.8 331.85l-.74 5.77c-.23 1.8-1.88 3.1-3.7 2.88h-.13c-9.75-1.74-39-5.8-67.3-.85-34.62 6.06-52.5.86-52.5.86s-12.6-5.94-17.64-8.65h142z"/><g fill-rule="nonzero"><g><path fill="url(#d)" d="M.83.7H254c0 6.95-5.63 12.58-12.57 12.58h-226C8.13 13.28 1.96 7.93.93.7h-.1z" transform="translate(111 306)"/><path fill="url(#e)" d="M12.08 13.28h213.3c0 6.94-5.63 12.57-12.57 12.57H26.6c-7.28 0-13.47-5.35-14.52-12.57z" transform="translate(111 306)"/></g></g><g stroke="#141414" transform="translate(305 48)"><circle cx="48" cy="47.26" r="47.17" fill="#fff" fill-rule="nonzero"/><path fill="#fff" fill-rule="nonzero" d="M47.97 17.17v30.1h23.55"/><path d="M47.97 5.34v4.03"/><path d="M62.22 7.83l-1.36 3.8"/><path d="M74.8 15.04l-2.6 3.1"/><path d="M84.15 26.07l-3.48 2.04"/><path d="M89.2 39.62l-3.98.75"/><path d="M89.34 54.1l-4-.66"/><path d="M84.55 67.76L81 65.8"/><path d="M75.4 78.97l-2.65-3.05"/><path d="M62.97 86.4l-1.44-3.78"/><path d="M48.77 89.17l-.1-4.04"/><path d="M34.47 86.93l1.3-3.82"/><path d="M21.77 79.97l2.53-3.15"/><path d="M12.22 69.1l3.44-2.1"/><path d="M6.9 55.64l3.97-.8"/><path d="M6.5 41.18l4 .6"/><path d="M11.04 27.43l3.57 1.9"/><path d="M19.97 16.06l2.7 3"/><path d="M32.25 8.4l1.52 3.74"/></g><g fill-rule="nonzero"><path fill="url(#f)" d="M75.6 17.08c-5.52.72-10.98-1.65-14.23-6.17C58.47 7 52.6 1.95 43.4 7c-13.86 7.58-16.1 15.57-29.94 18.3C-.4 28.03-3.7 38.7 4.2 46.76c7.9 8.05 9.26 17 5.2 24.12-4.06 7.12-6.27 25.47 7.92 26.8 14.2 1.33 22.5-1.33 26.52 9.84 4 11.17 20 25.06 39.5 13.4 19.5-11.66 38.93-.46 46.32-1.83 3.97-.7 7.5-2.96 9.82-6.26 2.32-3.3 3.22-7.4 2.52-11.37 0-.32-.12-.63-.2-1-2-10.13 1.36-20.26 8.78-25 0 0 9.13-2.6 11.35-14.1 2.22-11.53.34-24-16.82-29.83-17.15-5.82-12.4-19-27.5-26.7-15.1-7.7-26-2.42-30.22 2.56-3.38 3.96-6 8.83-11.78 9.68z"/><path fill="url(#g)" d="M130.72 122c-1.3 4-4.9 6.8-9.1 7.13-7.33.7-6.64 10.86 2.45 9.46 9.1-1.4 11.55 1.04 14.53 1.4 2.98.34 7.5-.55 7.88-6 .37-5.47-4.2-5.08-7.36-5.2-3.15-.12-.17-5.94-2.1-7.7-.82-.73-1.9-1.1-3-1.06-1.1.06-2.15.56-2.9 1.38-.14.18-.28.38-.4.58z"/><path fill="url(#h)" d="M152.05 147.94c-1.32-.9-3.04-1-4.44-.2-1.4.77-2.22 2.28-2.14 3.88v.44c.17 5.2 4.53 3.15 6.7 3.46 2.17.3 3.27-2.15 3.27-4.22s-1.77-1.8-3.05-3.14l-.33-.22z"/></g><g fill="#fff" fill-rule="nonzero"><path d="M84.1 89.9l4.65-.2-.32-7.44-4.84.22c-.52-1.7-1.3-3.3-2.32-4.73l3.22-3.36-5.36-5.2-3.36 3.46c-1.54-.87-3.2-1.48-4.94-1.83v-4.56H63.4v4.87c-2.1.53-4.05 1.47-5.77 2.75l-3.46-3.32L49.1 76l3.73 3.46c-1.08 2.08-1.72 4.35-1.9 6.7l-4.6.6.96 7.37 4.8-.62c.66 1.65 1.57 3.18 2.7 4.53l-2.92 3.6 5.8 4.67 2.93-3.77c1.6.74 3.33 1.2 5.08 1.4l.4 4.62 7.4-.64-.35-4.8c1.65-.58 3.2-1.43 4.6-2.5l3.47 3.07 4.9-5.6-3.64-3.2c.8-1.56 1.37-3.24 1.65-4.98zm-16.7 3.63c-3.84 0-6.94-3.1-6.94-6.93 0-3.83 3.1-6.93 6.93-6.93 3.82 0 6.92 3.1 6.92 6.93 0 1.84-.73 3.6-2.03 4.9-1.3 1.3-3.07 2.03-4.9 2.03z"/><path d="M126.58 69.62l4.66-.2-.3-7.42-4.86.22c-.5-1.7-1.3-3.28-2.3-4.72l3.22-3.38-5.4-5.2-3.33 3.47c-1.54-.88-3.2-1.5-4.94-1.85V46h-7.44v4.86c-2.1.53-4.06 1.47-5.78 2.76l-3.46-3.3-5.06 5.44 3.74 3.47c-1.1 2.07-1.73 4.35-1.88 6.68l-4.63.62 1 7.37 4.82-.63c.65 1.64 1.55 3.16 2.68 4.52l-2.9 3.6 5.8 4.67 3-3.7c1.6.73 3.3 1.2 5.05 1.4l.4 4.62 7.4-.72-.42-4.84c1.66-.58 3.22-1.42 4.62-2.5l3.46 3.08 4.92-5.6-3.65-3.2c.8-1.57 1.33-3.26 1.58-5zm-16.7 3.63c-2.8 0-5.32-1.7-6.4-4.28-1.07-2.6-.47-5.57 1.5-7.55 2-1.98 4.98-2.58 7.57-1.5 2.6 1.08 4.27 3.6 4.27 6.4 0 1.85-.73 3.6-2.03 4.9-1.3 1.3-3.07 2.03-4.9 2.03z"/><path d="M88.2 47.73l4.62-.64-1-7.4-4.8.7c-.68-1.63-1.6-3.14-2.75-4.48l2.87-3.66-5.85-4.6-3 3.83c-1.63-.73-3.34-1.2-5.1-1.37l-.43-4.6-7.4.73.47 4.83c-2.03.72-3.9 1.84-5.5 3.3l-3.83-2.95-4.5 5.9 4 3.1c-.9 2.18-1.32 4.54-1.23 6.9l-4.57 1 1.8 7.26 4.73-1.08c.8 1.56 1.87 3 3.13 4.22l-2.55 3.9 6.2 4.14 2.66-4.07c1.67.6 3.43.9 5.2.9l.85 4.58 7.3-1.4-.94-4.78c1.6-.74 3.06-1.73 4.35-2.93l3.8 2.7 4.33-6-4-2.8c.68-1.68 1.07-3.44 1.16-5.24zm-16.27 5.2c-2.8.28-5.48-1.14-6.8-3.6-1.34-2.47-1.06-5.5.7-7.68 1.78-2.17 4.68-3.07 7.37-2.26 2.7.8 4.62 3.13 4.9 5.92v.07c.37 3.77-2.4 7.14-6.17 7.52z"/></g></g></g></svg>