<svg xmlns="http://www.w3.org/2000/svg" width="16" height="28"><title>cellphone</title><desc>Created with Sketch.</desc><g fill="none"><g fill="#fff" fill-rule="nonzero"><path d="M13.54 27.12c.66 0 1.3-.24 1.76-.7.46-.48.72-1.1.7-1.77V2.47c.02-.66-.24-1.3-.7-1.76-.47-.46-1.1-.7-1.76-.7H2.46C1.8 0 1.16.24.7.7.24 1.2-.02 1.8 0 2.48v22.18c-.02.66.24 1.3.7 1.76.47.48 1.1.73 1.76.72h11.08zM8 26.1c-.68 0-1.23-.56-1.23-1.24 0-.68.55-1.23 1.23-1.23.68 0 1.23.55 1.23 1.23 0 .68-.55 1.23-1.23 1.23zM4.92 1.5c0-.07.03-.14.08-.2.06-.05.13-.07.2-.07h5.6c.15 0 .27.12.28.27v.08c0 .07-.03.14-.08.2-.06.05-.13.07-.2.07H5.2c-.15 0-.27-.12-.28-.27V1.5zm-3.7 1.58h13.55v19.7H1.23V3.07z"/></g></g></svg>