<svg xmlns="http://www.w3.org/2000/svg" width="26" height="26"><title>pinterest</title><desc>Created with Sketch.</desc><g fill="none"><g fill="#ef6c00" fill-rule="nonzero"><path d="M19.48 0H6.5C2.9.02 0 2.93 0 6.52v13C.03 23.1 2.92 25.98 6.5 26h13c3.6-.02 6.5-2.93 6.5-6.52v-13C25.97 2.9 23.06 0 19.48 0zM14.3 16.6c-.9.02-1.77-.4-2.3-1.14 0 0-.56 2.14-.68 2.55-.4 1.12-1 2.16-1.74 3.07-.02.07-.1.12-.17.1-.06-.02-.1-.1-.1-.17-.2-1.18-.2-2.37 0-3.55.2-.77 1.25-5.08 1.25-5.08-.2-.46-.3-.96-.3-1.46 0-1.38.8-2.4 1.84-2.4.36-.02.7.13.96.4.25.26.37.63.33 1-.2 1.12-.47 2.22-.85 3.3-.12.46 0 .94.3 1.3.3.36.77.54 1.24.5 1.8 0 3.05-2.27 3.05-4.95 0-2-1.43-3.57-4-3.57-1.23-.07-2.44.37-3.33 1.2-.9.85-1.4 2.03-1.42 3.26-.03.66.18 1.32.6 1.83.16.12.2.33.14.52 0 .15-.14.57-.2.73-.02.1-.1.2-.18.24-.1.04-.2.04-.3 0-1.35-.66-2.15-2.1-2-3.58 0-2.65 2.3-5.83 6.87-5.83 3.68 0 6.1 2.58 6.1 5.34.05 3.7-2.03 6.4-5.13 6.4z"/></g></g></svg>