<svg xmlns="http://www.w3.org/2000/svg" width="26" height="26"><title>twitter</title><desc>Created with Sketch.</desc><g fill="none"><g fill="#ef6c00" fill-rule="nonzero"><path d="M19.46 0H6.52C2.92 0 .02 2.92 0 6.52v13C.03 23.1 2.94 26 6.52 26h13c3.6-.03 6.5-2.95 6.48-6.54V6.52c-.02-3.6-2.94-6.5-6.54-6.52zm0 9.73v.43c0 2.5-1 4.9-2.78 6.64-1.78 1.75-4.18 2.72-6.68 2.68-1.8 0-3.58-.5-5.1-1.48.25 0 .5 0 .77 0 1.5 0 2.94-.48 4.12-1.4-1.42-.02-2.67-.93-3.12-2.27.2.04.4.06.62.06.3 0 .6-.05.9-.13-1.54-.32-2.63-1.66-2.63-3.22.45.26.96.4 1.48.4C5.6 10.53 5.13 8.62 6 7.12c1.7 2.06 4.2 3.3 6.85 3.44-.06-.24-.1-.5-.1-.75.02-.9.37-1.73 1-2.34.63-.62 1.47-.95 2.35-.94.9 0 1.8.35 2.44 1 .74-.14 1.45-.42 2.1-.8-.26.75-.77 1.4-1.46 1.8.66-.07 1.3-.25 1.9-.52-.43.67-1 1.26-1.64 1.73h.02z"/></g></g></svg>