<svg xmlns="http://www.w3.org/2000/svg" width="26" height="26"><title>linkedin</title><desc>Created with Sketch.</desc><g ><g  fill-rule="nonzero"><path d="M19.46 0H6.52C2.92 0 .02 2.92 0 6.52v13C.03 23.1 2.94 26 6.52 26h13c3.6-.03 6.5-2.95 6.48-6.54V6.52c-.02-3.6-2.94-6.5-6.54-6.52zM8.66 21H5V10.3h3.66V21zM6.78 8.66c-1.05 0-1.9-.85-1.9-1.9 0-1.05.85-1.9 1.9-1.9 1.05 0 1.9.85 1.9 1.9-.02 1.04-.86 1.88-1.9 1.9zM21.05 21h-3.1v-5.16c0-1.26-.18-2.87-1.9-2.87-1.7 0-2 1.36-2 2.78V21h-3.12V10.3h2.88v1.45h.1c.7-1.03 1.9-1.6 3.15-1.46 3.4 0 4 2 4 4.85V21z"/></g></g></svg>