<svg xmlns="http://www.w3.org/2000/svg" width="24" height="20"><title>sign-out</title><desc>Created with Sketch.</desc><g fill="none"><g fill="#283593" fill-rule="nonzero"><path d="M9.8 18.12c-.02-.06-.02-.14 0-.2 0-.06 0-.1-.1-.14-.12-.03-.13-.07-.13-.1 0 0-.06 0-.18 0h-5c-.64.02-1.27-.24-1.72-.7-.47-.48-.72-1.13-.68-1.8V4.4c0-.64.25-1.27.72-1.72.45-.44 1.06-.7 1.7-.68h4.9c.1 0 .2-.03.3-.1.08-.08.14-.2.15-.3.03-.12.04-.24.05-.36 0-.1 0-.24 0-.4 0-.16 0-.27 0-.3 0-.16-.05-.3-.17-.4-.1-.1-.2-.14-.34-.14H4.4C3.25-.02 2.1.45 1.3 1.3.44 2.1-.03 3.23 0 4.4V15.2c-.02 1.17.45 2.3 1.3 3.12.8.84 1.94 1.3 3.1 1.3h4.9c.12 0 .23-.04.32-.1.1-.1.14-.2.15-.3.03-.13.04-.25.05-.37 0-.1 0-.24 0-.4 0-.16-.02-.27-.02-.3zM23.7 9.1L15.4.8c-.4-.37-1-.37-1.38 0-.2.18-.3.43-.3.7v4.4H6.86c-.55 0-1 .45-1 1v5.87c0 .55.45 1 1 1h6.85v4.4c0 .27.12.52.3.7.4.36 1 .36 1.38 0l8.33-8.33c.37-.38.37-1 0-1.37V9.1z"/></g></g></svg>