<svg xmlns="http://www.w3.org/2000/svg" width="289" height="285"><title>man-mobile</title><desc>Created with Sketch.</desc><defs><linearGradient id="a" x1="0%" y1="49.994%" y2="49.994%"><stop stop-color="#2ACAFF" offset="0%"/><stop stop-color="#2ADFC3" offset="100%"/></linearGradient><linearGradient id="b" x1="0%" x2="99.999%" y1="49.998%" y2="49.998%"><stop stop-color="#76AADB" offset="0%"/><stop stop-color="#4A72B2" offset="100%"/></linearGradient><linearGradient id="c" x1="-.408%" x2="99.647%" y1="49.758%" y2="49.758%"><stop stop-color="#2ACAFF" offset="0%"/><stop stop-color="#2ADFC3" offset="100%"/></linearGradient><linearGradient id="d" x1="-.934%" x2="99.097%" y1="48.023%" y2="48.023%"><stop stop-color="#76AADB" offset="0%"/><stop stop-color="#4A72B2" offset="100%"/></linearGradient><linearGradient id="e" x1="-.903%" x2="99.129%" y1="48.023%" y2="48.023%"><stop stop-color="#76AADB" offset="0%"/><stop stop-color="#4A72B2" offset="100%"/></linearGradient><linearGradient id="f" x1="-1.485%" x2="98.568%" y1="48.305%" y2="48.305%"><stop stop-color="#76AADB" offset="0%"/><stop stop-color="#4A72B2" offset="100%"/></linearGradient><linearGradient id="g" x1="49.758%" x2="49.758%" y1=".285%" y2="100.34%"><stop stop-color="#2ACAFF" offset="0%"/><stop stop-color="#2ADFC3" offset="100%"/></linearGradient><linearGradient id="h" x1="46.893%" x2="46.893%" y1=".747%" y2="100.778%"><stop stop-color="#76AADB" offset="0%"/><stop stop-color="#4A72B2" offset="100%"/></linearGradient><linearGradient id="i" x1="47.175%" x2="47.175%" y1=".747%" y2="100.778%"><stop stop-color="#76AADB" offset="0%"/><stop stop-color="#4A72B2" offset="100%"/></linearGradient><linearGradient id="j" x1="47.175%" x2="47.175%" y1=".716%" y2="100.747%"><stop stop-color="#76AADB" offset="0%"/><stop stop-color="#4A72B2" offset="100%"/></linearGradient><linearGradient id="k" x1="46.893%" x2="46.893%" y1="1.167%" y2="101.22%"><stop stop-color="#76AADB" offset="0%"/><stop stop-color="#4A72B2" offset="100%"/></linearGradient><linearGradient id="l" x1="-.261%" x2="99.779%" y1="49.283%" y2="49.283%"><stop stop-color="#2ACAFF" offset="0%"/><stop stop-color="#2ADFC3" offset="100%"/></linearGradient><linearGradient id="m" x1="-.622%" x2="99.401%" y1="41.545%" y2="41.545%"><stop stop-color="#76AADB" offset="0%"/><stop stop-color="#4A72B2" offset="100%"/></linearGradient><linearGradient id="n" x1="-1.406%" x2="98.71%" y1="45.929%" y2="45.929%"><stop stop-color="#76AADB" offset="0%"/><stop stop-color="#4A72B2" offset="100%"/></linearGradient><linearGradient id="o" x1="-1.429%" x2="98.687%" y1="46.347%" y2="46.347%"><stop stop-color="#76AADB" offset="0%"/><stop stop-color="#4A72B2" offset="100%"/></linearGradient><linearGradient id="p" x1="-.668%" x2="99.355%" y1="41.545%" y2="41.545%"><stop stop-color="#76AADB" offset="0%"/><stop stop-color="#4A72B2" offset="100%"/></linearGradient><linearGradient id="q" x1="-1.098%" x2="98.941%" y1="41.754%" y2="41.754%"><stop stop-color="#76AADB" offset="0%"/><stop stop-color="#4A72B2" offset="100%"/></linearGradient><linearGradient id="r" x1="-.047%" x2="100.117%" y1="49.825%" y2="49.825%"><stop stop-color="#fff" offset="0%"/><stop stop-color="#F7F7F8" offset="100%"/></linearGradient></defs><g fill="none"><g><path fill="url(#a)" fill-rule="nonzero" d="M20.66 196.33S-36.2 140.76 38.72 90.86c74.9-49.9 155.73-72.45 202.84-66.55 47.1 5.9 35.24 119.5-5.42 188.47C195.48 281.75 97.68 278 20.66 196.33z"/><path fill="url(#b)" fill-rule="nonzero" d="M259.94 78.06s65.4 45.25 0 107-141.34 97.62-188.8 99.74C23.7 286.92 16.3 173 44.75 98.13 73.2 23.26 170.3 10.56 259.95 78.06z"/><g><g fill-rule="nonzero"><g fill="#C4C4C4"><path d="M24.05 91.2c-1.93-.02-3.5-1.58-3.5-3.5v-9.36c.02-1.92 1.58-3.48 3.5-3.5 1.93 0 3.5 1.57 3.5 3.5v9.35c0 1.92-1.57 3.48-3.5 3.5z"/></g><g fill="#C4C4C4"><path d="M24.05 72.58c-1.93 0-3.48-1.57-3.5-3.5v-9.34c.02-1.93 1.57-3.5 3.5-3.5s3.5 1.57 3.5 3.5v9.35c-.02 1.9-1.58 3.46-3.5 3.48z"/></g><g fill="#C4C4C4"><path d="M24.05 52.58c-1.92 0-3.48-1.56-3.5-3.48V46c.02-1.92 1.58-3.48 3.5-3.5 1.92.02 3.48 1.58 3.5 3.5v3.1c-.02 1.92-1.58 3.47-3.5 3.48z"/></g><g fill="#C4C4C4"><path d="M122.24 86.48c-1.92 0-3.48-1.56-3.48-3.48V65.7c0-1.93 1.56-3.5 3.48-3.5 1.93 0 3.48 1.56 3.5 3.5V83c-.02 1.92-1.58 3.48-3.5 3.48z"/></g><g><path fill="#000" d="M42.46 13.74h60.9c10.78 0 19.5 8.74 19.52 19.52V199.4c0 10.78-8.74 19.52-19.53 19.52h-60.9c-10.77 0-19.5-8.74-19.5-19.52V33.26c0-10.78 8.73-19.52 19.5-19.52z"/><path fill="#9B9B9A" d="M107.6 219.83H38.16C29.23 219.8 22 212.58 22 203.66V29c.02-8.93 7.26-16.17 16.2-16.18h69.46c8.9.04 16.12 7.27 16.14 16.18v174.66c-.02 8.93-7.26 16.16-16.2 16.17zM38.2 14.63c-7.93.03-14.34 6.45-14.36 14.37v174.66c.02 7.92 6.43 14.33 14.35 14.34h69.46c7.9-.02 14.32-6.43 14.34-14.34V29c0-7.94-6.45-14.37-14.4-14.37H38.2z"/></g><g fill="#858585"><g><path d="M107 16.17c7.46 0 13.5 6.05 13.52 13.5V203c-.02 7.46-6.06 13.5-13.52 13.5H38.9c-7.46-.02-13.5-6.05-13.52-13.5V29.68c0-7.46 6.05-13.5 13.5-13.5H107zm0-2.43H38.9c-4.24-.02-8.3 1.65-11.3 4.64-3 2.98-4.7 7.04-4.7 11.27V203c.03 8.8 7.18 15.93 16 15.93H107c8.78-.02 15.9-7.15 15.9-15.93V29.68c0-8.8-7.1-15.92-15.9-15.94z"/></g></g><g fill="#EBEBEB"><path d="M22 34.52h3.33v2.18H22z"/></g><g fill="#EBEBEB"><path d="M120.42 34.52h3.38v2.18h-3.38z"/></g><g fill="#EBEBEB"><path d="M22 197.82h3.4V200H22z"/></g><g fill="#EBEBEB"><path d="M120.37 197.82h3.4V200h-3.4z"/></g><path fill="#fff" d="M117.2 29.7V29c.02-.23-.02-.47-.1-.68-.1-.24-.14-.48-.16-.73-.06-.24-.14-.52-.23-.76-.07-.27-.17-.54-.28-.8-.13-.3-.27-.6-.4-.88-.18-.34-.37-.68-.58-1-.3-.4-.6-.8-.92-1.16-1.54-1.7-3.57-2.88-5.82-3.35-.46-.1-.92-.16-1.4-.18-.25-.02-.5-.02-.76 0H98.3c-.2 0-.38.1-.5.25-.1.1-.15.25-.16.4v.14c0 .2 0 .4-.07.58-.07.2 0 .4-.1.6-.04.17-.1.34-.16.5-.02.2-.1.37-.2.53-.08.16-.17.32-.27.47-.1.16-.2.3-.3.46-.1.14-.24.28-.36.42-.13.14-.27.27-.42.38-.14.13-.3.26-.44.38-.17.12-.36.22-.55.3-.2.12-.4.22-.6.3-.23.08-.47.16-.7.22-.3.06-.6.1-.9.1h-39.3c-.62-.02-1.23-.16-1.8-.4-.35-.17-.7-.36-1-.6-.55-.34-1.05-.78-1.45-1.3-.18-.32-.32-.65-.43-1-.1-.25-.18-.5-.23-.78-.05-.23-.1-.46-.12-.7 0-.2 0-.4 0-.6-.03-.32-.3-.57-.63-.57h-9.1c-.3-.02-.62.02-.9.1-.28.05-.55.1-.8.17l-.76.2-.67.25-.6.26-.6.28-.53.34c-.18.1-.36.2-.52.34l-.47.34-.45.4-.4.37-.4.4c-.13.14-.25.28-.36.42-.13.14-.23.3-.34.43-.1.14-.22.3-.32.45-.1.15-.2.32-.3.47-.08.15-.17.3-.25.47-.08.17-.17.33-.24.5-.1.16-.17.33-.23.5 0 .17-.14.35-.2.52l-.16.54c-.02.18-.06.37-.13.54 0 .18-.08.37-.1.57-.05.2-.07.4-.1.6 0 .2 0 .38 0 .6v172.6c0 .27.02.54.07.8 0 .28.06.57.14.84.1.3.18.6.23.9.1.32.2.63.33.94.13.34.28.67.45 1 .2.4.4.77.64 1.14.3.5.64.95 1 1.4 1.74 2 4.1 3.37 6.72 3.87.54.1 1.1.16 1.64.18h66.3c.4 0 .8-.02 1.18-.07.34 0 .67-.07 1-.16l.92-.23.82-.3.75-.32.7-.36c.2-.12.42-.26.63-.4l.6-.42c.2-.14.37-.3.54-.44.17-.15.35-.3.5-.47l.5-.5c.14-.18.3-.35.43-.53l.4-.53.37-.55c.1-.2.23-.4.33-.58l.3-.6c.1-.2.18-.4.25-.6.1-.22.17-.43.24-.64.07-.2.13-.44.2-.66.06-.22.1-.44.15-.67.04-.23.08-.46.1-.7V30.25c.07-.17.1-.36.1-.54z"/></g><g fill-rule="nonzero"><g transform="translate(10) translate(26 36)"><rect width="73.56" height="37.12" x=".547" y=".39" fill="url(#c)" transform="rotate(-.07 37.327 18.95)" rx="3.42"/><g><g><path fill="url(#d)" d="M.45.3h32.13v3.53H.45z" transform="translate(7 5) rotate(-.07 16.518 2.057)"/><path fill="url(#e)" d="M.46 5.98H32.6v3.54H.45z" transform="translate(7 5) rotate(-.07 16.525 7.747)"/><path fill="url(#e)" d="M.48 11.68H32.6v3.54H.5z" transform="translate(7 5) rotate(-.07 16.541 13.447)"/><path fill="url(#e)" d="M.48 17.37H32.6v3.54H.5z" transform="translate(7 5) rotate(-.07 16.548 19.137)"/><path fill="url(#f)" d="M.5 23.05h18.85v3.54H.5z" transform="translate(7 5) rotate(-.07 9.925 24.825)"/></g></g><g fill="#FADD74"><path d="M51.6 8.75c0 1.74-1.04 3.3-2.65 3.98-1.6.67-3.46.3-4.7-.93-1.22-1.22-1.6-3.08-.92-4.68.66-1.6 2.23-2.66 3.97-2.66 1.14 0 2.24.44 3.04 1.25.8.82 1.26 1.9 1.26 3.05z"/></g><path fill="#E6332A" d="M61.32 8.74c0 2.37-1.92 4.3-4.3 4.3-2.37 0-4.3-1.9-4.3-4.3 0-2.36 1.9-4.3 4.28-4.3 1.14 0 2.24.45 3.05 1.25.8.8 1.27 1.9 1.27 3.04z"/><g fill="#FADD74"><path d="M71.05 8.72c0 1.74-1.04 3.3-2.65 3.98-1.6.67-3.46.3-4.7-.93-1.22-1.22-1.6-3.08-.92-4.68.66-1.62 2.23-2.67 3.97-2.67 2.37 0 4.3 1.92 4.3 4.3z"/></g><g fill="#34525C"><path d="M51.6 19.3c0 2.38-1.92 4.3-4.3 4.3-2.37 0-4.3-1.92-4.3-4.3 0-2.37 1.93-4.3 4.3-4.3 1.14 0 2.24.45 3.05 1.26.8.8 1.27 1.9 1.26 3.05z"/></g><g fill="#FADD74"><path d="M61.33 19.3c0 2.35-1.9 4.27-4.28 4.28-2.36 0-4.3-1.9-4.3-4.26 0-2.37 1.9-4.3 4.25-4.32 1.14 0 2.25.44 3.06 1.24.8.8 1.27 1.9 1.27 3.05z"/></g><path fill="#fff" d="M71.06 19.3c0 1.73-1.04 3.3-2.65 3.97-1.6.67-3.45.3-4.68-.93-1.23-1.23-1.6-3.08-.93-4.7.66-1.6 2.23-2.64 3.97-2.64 2.37 0 4.28 1.92 4.3 4.3z"/><g fill="#FADD74"><path d="M51.62 29.88c0 2.37-1.92 4.3-4.3 4.3-2.36 0-4.28-1.93-4.28-4.3s1.92-4.3 4.3-4.3c1.13 0 2.22.46 3.02 1.26.8.8 1.25 1.9 1.25 3.03h.02z"/></g><g fill="#34525C"><path d="M61.35 29.87c0 1.74-1.05 3.3-2.66 3.97-1.6.67-3.47.3-4.7-.93-1.22-1.22-1.6-3.08-.92-4.68.67-1.6 2.24-2.65 3.98-2.65 2.37 0 4.3 1.93 4.3 4.3z"/></g><path fill="#fff" d="M71.07 29.85c0 1.74-1.04 3.32-2.64 4-1.6.67-3.47.3-4.7-.92-1.24-1.23-1.62-3.08-.96-4.7.67-1.6 2.24-2.67 3.98-2.67 1.14 0 2.24.44 3.05 1.25.8.8 1.27 1.9 1.27 3.05z"/></g><g transform="translate(36 79)"><rect width="37.12" height="73.56" x="18.78" y="-17.94" fill="url(#g)" transform="rotate(-89.93 37.34 18.84)" rx="3.42"/><g><g><path fill="url(#h)" d="M14.38-14.14h3.54V18h-3.54z" transform="translate(35 5) rotate(-89.93 16.151 1.925)"/><path fill="url(#i)" d="M14.37-8.44h3.54V23.7h-3.53z" transform="translate(35 5) rotate(-89.93 16.141 7.622)"/><path fill="url(#j)" d="M14.37-2.77h3.54v32.13h-3.53z" transform="translate(35 5) rotate(-89.93 16.141 13.299)"/><path fill="url(#j)" d="M14.35 2.93h3.54v32.13h-3.55z" transform="translate(35 5) rotate(-89.93 16.121 18.996)"/><path fill="url(#k)" d="M21 15.28h3.53v18.85H21z" transform="translate(35 5) rotate(-89.93 22.759 24.703)"/></g></g><g fill="#FADD74"><path d="M23.06 8.6c-.02 2.38 1.88 4.32 4.25 4.34 2.38.02 4.32-1.88 4.34-4.25.02-2.38-1.88-4.32-4.25-4.34-2.38-.02-4.3 1.88-4.34 4.25z"/></g><path fill="#E6332A" d="M13.35 8.6c-.03 2.36 1.86 4.3 4.23 4.34 2.37.03 4.32-1.86 4.35-4.23.03-2.36-1.86-4.3-4.23-4.34h-.06c-2.35 0-4.26 1.88-4.3 4.23z"/><g fill="#FADD74"><path d="M3.62 8.53c-.05 1.74.95 3.34 2.54 4.06 1.6.7 3.46.38 4.72-.83 1.27-1.2 1.68-3.04 1.05-4.67C11.3 5.48 9.73 4.4 8 4.36h-.12c-2.3.02-4.2 1.86-4.26 4.17z"/></g><g fill="#34525C"><path d="M23.05 19.18c0 2.37 1.92 4.3 4.3 4.3 2.35 0 4.28-1.93 4.28-4.3 0-2.36-1.9-4.28-4.28-4.3-1.14 0-2.23.46-3.04 1.26-.8.8-1.25 1.9-1.25 3.04z"/></g><g fill="#FADD74"><path d="M13.33 19.17c0 2.37 1.93 4.3 4.3 4.3s4.3-1.93 4.3-4.3-1.93-4.3-4.3-4.3-4.3 1.9-4.3 4.27v.03z"/></g><path fill="#fff" d="M3.6 19.15c0 2.37 1.93 4.3 4.3 4.3s4.3-1.93 4.3-4.3-1.93-4.3-4.3-4.3-4.3 1.93-4.3 4.3z"/><g fill="#FADD74"><path d="M23 29.74c0 1.74 1.04 3.32 2.64 4 1.6.67 3.47.3 4.7-.92 1.24-1.23 1.62-3.08.96-4.7-.67-1.6-2.24-2.67-3.98-2.67-2.38 0-4.3 1.9-4.32 4.3z"/></g><g fill="#34525C" transform="translate(13 25)"><circle cx="4.62" cy="4.74" r="4.29"/></g><path fill="#fff" d="M3.6 29.73C3.6 32.1 5.53 34 7.9 34c2.36 0 4.28-1.9 4.28-4.28 0-2.36-1.9-4.28-4.28-4.3-1.14 0-2.24.46-3.04 1.27-.8.8-1.26 1.9-1.26 3.03z"/></g></g><g><g fill="#FFCB9C" fill-rule="nonzero"><g><g><path d="M163.92 191.37c-6-36.3-21.1-43.93-21.1-43.93l-8.73 10.2c.23.66.35 1.36.36 2.06 0 6.26-.3 13.6-5.84 17.45 2.18 3 3.56 6.5 4 10.18.85 7.27-1.4 15.28-12.06 20.84-12.76 6.64-38.76 6.3-38.76 6.3l-8.7 9.32c57.97 21.52 95.27-5.57 90.82-32.43z"/></g></g><g><path d="M71 211.7s-22.23-6.28-24.24-6c-2 .28-1.72 2.85 2.14 3.72 3.64 1.02 7.22 2.25 10.7 3.7 0 0-14.6-2.77-15.66-1.88-1.06.9-.75 2.78 1.92 3 2.67.22 13.24 2.78 13.24 2.78-3.9-.14-7.8-.05-11.68.28-2.46.52.54 2.47 3 2.5 2.46.03 10.5 1.2 10.5 1.2s-7 1.6-7.9 2.63c-.9 1.04 0 1.66 1.13 1.62 1.13-.04 10.85-2.4 10.85-2.4s9 3 14-.62c5-3.6 3.8-7.1 3-7.65-.8-.56-13.36-10.06-16-10.8-2.64-.72-3.33 1.3.45 3.53 3.78 2.23 5.78 3.77 4.55 4.4z"/></g></g><path fill="#000" fill-rule="nonzero" d="M239.4 203.35S221.7 119 174.47 115.1c-47.22-3.9-64.4 92.3-38.47 152.82 0 .08 50.93-19.58 103.4-64.57z"/><g fill-rule="nonzero" transform="translate(10) translate(0 120)"><rect width="99.45" height="50.18" x="2.982" y="29.489" fill="url(#l)" transform="rotate(-48.54 52.707 54.579)" rx="3.42"/><g><g><path fill="url(#m)" d="M-4.72 15.53h43.44v4.8H-4.72z" transform="translate(36 12) rotate(-48.54 16.999 17.922)"/><path fill="url(#n)" d="M1.1 21.02h43.4v4.8H1.1z" transform="translate(36 12) rotate(-48.65 22.81 23.415)"/><path fill="url(#o)" d="M6.88 26.1h43.4v4.8H6.88z" transform="translate(36 12) rotate(-48.65 28.58 28.498)"/><path fill="url(#p)" d="M12.6 30.8h43.43v4.8H12.6z" transform="translate(36 12) rotate(-48.54 34.311 33.206)"/><path fill="url(#q)" d="M33.27 29.2h25.5v4.78h-25.5z" transform="translate(36 12) rotate(-48.54 46.016 31.581)"/></g></g><g fill="#FADD74"><path d="M29.6 59.93c1.77 1.56 4.3 1.9 6.4.86 2.12-1.04 3.4-3.24 3.25-5.6-.14-2.33-1.7-4.36-3.9-5.12-2.23-.76-4.7-.1-6.25 1.65-2.12 2.4-1.9 6.08.5 8.2z"/></g><path fill="#E6332A" d="M20.9 69.78c1.76 1.56 4.28 1.9 6.4.87 2.1-1.03 3.4-3.23 3.25-5.57-.14-2.35-1.68-4.38-3.9-5.14-2.23-.77-4.7-.12-6.25 1.64-2.12 2.4-1.9 6.07.5 8.2z"/><g fill="#FADD74"><path d="M12.22 79.63c1.76 1.56 4.28 1.9 6.4.87 2.1-1.03 3.4-3.23 3.25-5.57-.14-2.35-1.68-4.38-3.9-5.14-2.23-.78-4.7-.13-6.25 1.63-2.12 2.4-1.9 6.07.5 8.2z"/></g><g fill="#34525C"><path d="M40.3 69.37c2.4 2.12 6.07 1.9 8.2-.5 2.12-2.4 1.9-6.05-.5-8.18s-6.05-1.92-8.18.48c-1.02 1.15-1.55 2.66-1.46 4.2.1 1.53.8 2.97 1.95 4z"/></g><g fill="#FADD74"><path d="M31.67 79.22c2.4 2.12 6.07 1.9 8.2-.5 2.1-2.4 1.88-6.08-.52-8.2-2.4-2.12-6.07-1.9-8.2.5-1 1.16-1.53 2.67-1.43 4.2.1 1.55.8 2.98 1.95 4z"/></g><path fill="#fff" d="M22.9 89.07c1.77 1.56 4.3 1.9 6.4.87 2.12-1.03 3.4-3.24 3.26-5.58-.15-2.35-1.7-4.38-3.92-5.14-2.22-.76-4.7-.1-6.24 1.66-2.12 2.4-1.9 6.07.5 8.2z"/><g fill="#FADD74"><path d="M51 78.83c1.76 1.56 4.3 1.9 6.4.86 2.1-1.04 3.4-3.25 3.24-5.6-.15-2.34-1.7-4.37-3.92-5.12-2.22-.76-4.7-.1-6.24 1.66-1.02 1.15-1.54 2.67-1.44 4.2.1 1.54.8 2.97 1.96 4z"/></g><g fill="#34525C"><path d="M42.32 88.68c1.76 1.56 4.3 1.9 6.4.87 2.1-1.03 3.4-3.24 3.25-5.58-.15-2.35-1.7-4.38-3.92-5.14-2.22-.76-4.7-.1-6.24 1.66-1 1.14-1.53 2.65-1.43 4.2.1 1.53.8 2.96 1.95 3.98z"/></g><path fill="#fff" d="M33.6 98.53c1.77 1.56 4.3 1.9 6.4.88 2.12-1.02 3.4-3.22 3.27-5.57-.15-2.35-1.7-4.38-3.92-5.14-2.22-.77-4.68-.12-6.24 1.64-1 1.15-1.53 2.66-1.44 4.2.1 1.53.8 2.97 1.95 4z"/></g><g fill="#FFCB9C" fill-rule="nonzero"><g><g><path d="M194.1 167.77s3.17 16.67-22 43.53c-18.57 19.88-62.77 6.82-81-52.24l12.7 1.22s15.6 20.84 28.62 26.9c10.86 5.06 18.64 2 23.88-3.14 4.72-4.7 7.1-11.25 6.5-17.88l31.3 1.6z"/></g></g><g><path d="M99.38 150s-8.55-21.4-10-22.87c-1.45-1.47-3.3.38-1.66 4 1.43 3.5 2.63 7.1 3.6 10.75 0 0-6.65-13.2-8-13.55-1.33-.34-2.67 1.1-1.22 3.36 1.45 2.24 5.83 12.22 5.83 12.22s-5.44-7.46-7.3-9.1c-1.86-1.64-1.64 1.93-.13 3.93 1.5 2 5.43 9 5.43 9s-5.5-4.54-6.94-4.68c-1.46-.14-1.32 1-.6 1.9.7.9 8.55 7.15 8.55 7.15s3.1 9 9 10.73c5.9 1.73 7.94-1.3 7.9-2.3-.04-1-.18-16.66-1.18-19.2-1-2.54-3.06-1.85-2.5 2.5s.46 6.72-.8 6.15z"/></g></g><g transform="translate(10) translate(109)"><circle cx="42.99" cy="23.4" r="23.4" fill="#191919" fill-rule="nonzero"/><circle cx="30.96" cy="46.87" r="14.66" fill="#191919" fill-rule="nonzero"/><circle cx="62.673" cy="47.533" r="19.89" fill="#191919" fill-rule="nonzero" transform="rotate(-80.78 62.673 47.533)"/><g><g transform="translate(0 30)"><path fill="#FFCB9C" fill-rule="nonzero" d="M6.83 47c.5 11.76 3.43 22.38 21.07 30.33 0 0 9.06 9.1 6.4 21.58-2.64 12.5 31.53 11.56 26.4-5.66-5.13-17.22 3.37-37.1 9.55-48.4C76.43 33.53 73.88 10 59.65 2.3 54.07-.7 40.18.66 31.06 5.08 15.75 12.65 6.1 29.93 6.83 47z"/><path fill="#FFCB9C" fill-rule="nonzero" d="M66.73 34.7c2.64-1.98 6.02-2.7 9.24-2 5.12 1.4 6 20-6 23.3-12 3.3-7.66-8.47-7.66-8.47l4.43-12.83z"/><path fill="#191919" fill-rule="nonzero" d="M6.2 45c.46.07.92.1 1.4.1.93.02 1.87-.13 2.77-.43 4 2 10.8 4.17 17.56.68 10.45-5.45 19.7-6.24 24.58-3.86 8.34 4.07 18.07 1.88 20.85-11.13 0 0 1.18 10.3-5.2 15.7C61.77 51.44 61.5 60 62.5 67s6 15-.42 23.83c-6.42 8.83-16.9 0-24.76 2.1-7.87 2.12-25.2 4.34-28.82-10-3.62-14.32 1.07-19.66 0-25.6C7.6 52.4 5.6 49.38 6.2 45z"/><g fill="url(#r)" fill-rule="nonzero" transform="translate(15 49)"><g><path d="M15.86 3c1.46-1.23 3.16-2.13 5-2.63 2.45-.46 5 0 6 3s-1.57 5.8-4.92 8.34c-2 1.5-9.08 4-13.4 2.8-4.32-1.23-6.66-2.37-8-4.92-1.34-2.55.3-5.64 2.3-6.8 1.75-.87 3.84-.82 5.55.15 2.26 1.46 5.16 1.5 7.46.07z"/></g></g><path fill="#191919" fill-rule="nonzero" d="M37.32 28.67c0 2 .86 3.7 1.92 3.7s1.92-1.66 1.92-3.7-.86-3.7-1.92-3.7-1.92 1.66-1.92 3.7z"/><path fill="#191919" fill-rule="nonzero" d="M16.44 31.13c0 2 .86 3.7 1.92 3.7s1.92-1.66 1.92-3.7-.86-3.7-1.92-3.7-1.92 1.57-1.92 3.7z"/><path stroke="#1D1D1B" stroke-width="2" d="M3.24 28.67c0 4.78 2.88 9.08 7.3 10.9 4.4 1.83 9.5.8 12.86-2.57 3.37-3.38 4.37-8.47 2.53-12.87-1.84-4.4-6.15-7.28-10.93-7.26-3.13 0-6.13 1.24-8.35 3.45-2.2 2.22-3.45 5.22-3.45 8.35h.04z"/><path fill="#FF6252" fill-rule="nonzero" d="M26.5 18.7L20.3 43.4l12.83-1.4z"/><circle cx="41.15" cy="26.78" r="11.8" stroke="#1D1D1B" stroke-width="2"/><path stroke="#1D1D1B" stroke-width="2" d="M23.9 20.88h7.06"/><path stroke="#1D1D1B" stroke-width="2" d="M52.5 23.58l21.97 6.87"/><path fill="#191919" fill-rule="nonzero" d="M62.58 48.47c0 3.14 2.55 5.67 5.7 5.67 3.12 0 5.66-2.55 5.66-5.68 0-3.14-2.54-5.68-5.68-5.68-1.5 0-2.95.6-4.02 1.67-1.07 1.06-1.66 2.5-1.66 4.02z"/><path fill="#191919" fill-rule="nonzero" d="M60.64 55.2c0 2.76 2.24 5 5 5s5-2.24 5-5-2.24-5-5-5-5 2.24-5 5z"/><path fill="#191919" fill-rule="nonzero" d="M58.9 63.08c0 2.7 1.63 5.16 4.13 6.2 2.5 1.05 5.4.48 7.3-1.43 1.93-1.9 2.5-4.8 1.47-7.3s-3.47-4.15-6.18-4.15c-1.78 0-3.48.7-4.74 1.95-1.26 1.25-1.97 2.95-1.97 4.73z"/><path fill="#191919" fill-rule="nonzero" d="M58.9 73.9c0 2.7 1.6 5.16 4.1 6.22 2.5 1.06 5.38.5 7.3-1.4 1.94-1.9 2.54-4.77 1.52-7.3-1.02-2.5-3.45-4.15-6.16-4.17h-.06c-3.68 0-6.66 2.96-6.7 6.64z"/><path fill="#191919" fill-rule="nonzero" d="M55.88 85.78c0 2.7 1.63 5.16 4.13 6.2s5.4.47 7.3-1.45c1.93-1.9 2.5-4.8 1.47-7.3-1.04-2.5-3.48-4.14-6.2-4.14-3.7 0-6.68 2.98-6.7 6.68z"/><path fill="#191919" fill-rule="nonzero" d="M48.2 93.13c0 2.7 1.63 5.16 4.13 6.2s5.4.47 7.3-1.45c1.92-1.9 2.5-4.8 1.46-7.3-1.05-2.5-3.5-4.14-6.2-4.14-1.78 0-3.48.7-4.74 1.96-1.25 1.25-1.96 2.95-1.96 4.73z"/><path fill="#191919" fill-rule="nonzero" d="M35.42 92.47c0 3.7 3 6.7 6.7 6.7 3.7.02 6.7-2.97 6.7-6.67 0-3.7-2.98-6.7-6.68-6.72-1.78 0-3.5.7-4.75 1.95-1.27 1.26-1.98 2.96-1.98 4.74z"/><circle cx="29.52" cy="94.9" r="6.7" fill="#191919" fill-rule="nonzero"/><path fill="#191919" fill-rule="nonzero" d="M10.2 91c-.02 3.7 2.98 6.7 6.68 6.7 3.7.02 6.7-2.98 6.7-6.68.02-3.7-2.98-6.7-6.68-6.7-1.78 0-3.48.7-4.74 1.95-1.26 1.25-1.97 2.95-1.97 4.73z"/><path fill="#191919" fill-rule="nonzero" d="M4 81.52c0 2.7 1.63 5.15 4.14 6.2 2.5 1.03 5.4.45 7.3-1.47 1.92-1.9 2.5-4.8 1.45-7.3s-3.5-4.13-6.2-4.13c-1.8 0-3.5.7-4.74 1.96C4.7 78.04 4 79.74 4 81.52z"/><circle cx="6.79" cy="69.72" r="6.7" fill="#191919" fill-rule="nonzero"/><path fill="#191919" fill-rule="nonzero" d="M1 58.3c0 2.7 1.63 5.14 4.14 6.18 2.5 1.04 5.4.46 7.3-1.46 1.92-1.9 2.5-4.8 1.45-7.3s-3.5-4.13-6.2-4.13c-1.78 0-3.48.7-4.74 1.94C1.7 54.8 1 56.5 1 58.26v.03z"/><path fill="#191919" fill-rule="nonzero" d="M.63 50.2c-.2 2.7 1.25 5.26 3.67 6.5 2.43 1.2 5.35.85 7.4-.93 2.06-1.78 2.85-4.62 2-7.2C12.82 46 10.5 44.2 7.8 44h-.5C3.77 43.88.8 46.64.64 50.2z"/></g></g><path fill="#191919" fill-rule="nonzero" d="M71.72 65.42s3.6-27.9-21.56-26.78c-16.6.72-23 2.4-28.45-4.6-5.44-7-1.13-30.55 21.64-30.66 22.77-.1 22.42 26.4 22.42 26.4S87 38.3 73.46 62.62l-1.74 2.8z"/></g></g></g></g></g></svg>